<?xml version="1.0" encoding="UTF-8" standalone="no"?>
<!DOCTYPE svg  PUBLIC '-//W3C//DTD SVG 1.1//EN'  'http://www.w3.org/Graphics/SVG/1.1/DTD/svg11.dtd'>
<svg xmlns="http://www.w3.org/2000/svg">
<defs>
<font id="Avenir-Book" horiz-adv-x="556">
<font-face underline-position="-75" font-weight="500" descent="-200" panose-1="0 0 0 0 0 0 0 0 0 0" units-per-em="1000" unicode-range="U+0020-2212" bbox="-167 -288 1000 920" x-height="468" underline-thickness="50" font-family="Avenir" ascent="800" cap-height="708"/>
<missing-glyph horiz-adv-x="1000"/>
<glyph glyph-name=".notdef" horiz-adv-x="1000"/>
<glyph glyph-name=".null" horiz-adv-x="0"/>
<glyph glyph-name="nonmarkingreturn" horiz-adv-x="1000"/>
<glyph glyph-name="space" horiz-adv-x="278" unicode=" "/>
<glyph glyph-name="exclam" horiz-adv-x="278" unicode="!" d="M193 48q1 -22 -15 -38t-39 -16t-39 16t-15 38q-1 22 15 38t39 16t39 -16t15 -38zM175 708v-516h-72v516h72z"/>
<glyph glyph-name="quotedbl" horiz-adv-x="519" unicode='&quot;' d="M302 473v235h60v-235h-60zM157 473v235h60v-235h-60z"/>
<glyph glyph-name="numbersign" d="M228 436l-22 -162h133l22 162h-133zM107 0l30 214h-102v60h110l22 162h-108v60h117l29 212h61l-29 -212h133l29 212h61l-29 -212h90v-60h-99l-22 -162h95v-60h-103l-30 -214h-61l30 214h-133l-30 -214h-61z" unicode="#"/>
<glyph glyph-name="dollar" d="M254 49v279q-40 12 -70 26t-60 38q-30 23 -46 57t-17 78q-1 83 57 136t136 59v70h48v-68q112 0 185 -85l-56 -48q-19 34 -55 51q-34 16 -70 16h-4v-267q44 -17 74 -31t63 -39t49 -61t17 -82q1 -82 -57 -136t-146 -58v-68h-48v66q-67 4 -123 34t-88 76l60 43 q32 -39 75 -63q41 -23 73 -23h3zM302 314v-264q50 0 90 30q42 31 41 99q0 93 -131 135zM254 405v252q-53 -4 -87 -40t-34 -88q-1 -47 31 -75t90 -49z" unicode="$"/>
<glyph glyph-name="percent" horiz-adv-x="833" unicode="%" d="M667 712l-450 -743l-52 27l451 743zM735 163q0 49 -34 82t-82 33t-82 -33t-34 -82t34 -82t82 -33t82 33t34 82zM795 163q0 -75 -51 -125t-125 -50t-125 50t-51 125t51 125t125 50t125 -50t51 -125zM330 545q0 49 -34 82t-82 33t-82 -33t-34 -82t34 -82t82 -33t82 33 t34 82zM390 545q0 -75 -51 -125t-125 -50t-125 50t-51 125t51 125t125 50t125 -50t51 -125z"/>
<glyph glyph-name="ampersand" horiz-adv-x="704" unicode="&amp;" d="M441 152l-187 196q-72 -40 -100 -76t-28 -89q0 -59 43 -97t102 -38q53 0 91 26t79 78zM402 567q0 41 -28 67t-70 26q-46 0 -76 -28t-30 -76q0 -32 25 -69t49 -58q4 1 24 13t26 16t23 15t23 19t17 20q9 12 13 26t4 29zM659 383l-130 -219l159 -164h-102l-100 104 q-48 -62 -98 -92t-118 -30q-92 0 -157 55t-65 147q0 133 161 209q-83 89 -83 166t50 122t127 45q75 0 123 -42t48 -117q0 -63 -43 -105t-113 -79l163 -168l97 168h81z"/>
<glyph glyph-name="quotesingle" horiz-adv-x="260" unicode="&apos;" d="M100 473v235h60v-235h-60z"/>
<glyph glyph-name="parenleft" horiz-adv-x="260" unicode="(" d="M199 736l53 -34q-68 -111 -100 -204t-32 -210t30 -206t98 -202l-53 -40q-67 93 -104 210t-37 238q0 116 38 234t107 214z"/>
<glyph glyph-name="parenright" horiz-adv-x="260" unicode=")" d="M61 -160l-53 34q68 111 100 204t32 210t-30 206t-98 202l53 40q67 -93 104 -210t37 -238q0 -116 -38 -234t-107 -214z"/>
<glyph glyph-name="asterisk" horiz-adv-x="444" unicode="*" d="M252 708v-143l140 45l21 -56l-141 -45l90 -121l-48 -36l-92 124l-92 -124l-48 36l90 121l-141 45l21 56l140 -45v143h60z"/>
<glyph glyph-name="plus" horiz-adv-x="666" unicode="+" d="M363 558v-225h225v-60h-225v-225h-60v225h-225v60h225v225h60z"/>
<glyph glyph-name="comma" horiz-adv-x="278" unicode="," d="M213 95l-81 -235h-67l67 235h81z"/>
<glyph glyph-name="hyphen" horiz-adv-x="333" unicode="-" d="M295 273v-66h-257v66h257z"/>
<glyph glyph-name="period" horiz-adv-x="278" unicode="." d="M193 48q1 -22 -15 -38t-39 -16t-39 16t-15 38q-1 22 15 38t39 16t39 -16t15 -38z"/>
<glyph glyph-name="slash" horiz-adv-x="370" unicode="/" d="M365 706l-302 -724l-58 19l303 725z"/>
<glyph glyph-name="zero" d="M278 654q-168 0 -168 -300t168 -300t168 300t-168 300zM278 720q58 0 102 -24t70 -59q26 -36 42 -87q16 -52 21 -98t5 -98t-5 -98t-21 -98q-16 -51 -42 -87q-26 -35 -70 -59t-102 -24t-102 24t-70 59q-26 36 -42 87q-16 52 -21 98t-5 98t5 98t21 98q16 51 42 87 q26 35 70 59t102 24z" unicode="0"/>
<glyph glyph-name="one" d="M348 708v-708h-72v618l-127 -112l-45 54l180 148h64z" unicode="1"/>
<glyph glyph-name="two" d="M498 66v-66h-450v83l282 287q28 28 44 48t31 50q15 32 15 62q0 56 -39 90t-98 34q-53 0 -91 -30t-50 -81l-76 8q14 77 72 123t140 46q90 0 152 -48t62 -136q0 -39 -11 -73q-11 -33 -35 -67t-43 -54q-18 -20 -54 -55l-223 -221h372z" unicode="2"/>
<glyph glyph-name="three" d="M204 338v66h37q67 0 111 32t44 98q0 56 -34 88t-97 32q-90 0 -135 -78l-63 32q62 112 196 112q87 0 146 -50t59 -134q0 -56 -34 -101t-86 -61l3 -2q61 -13 99 -63t37 -117q0 -96 -65 -150t-161 -54q-167 0 -223 143l76 23q18 -52 54 -76t99 -24q62 0 105 40t43 100 q0 76 -51 110t-129 34h-31z" unicode="3"/>
<glyph glyph-name="four" d="M344 234v402h-2l-244 -402h246zM416 708v-474h102v-66h-102v-168h-72v168h-306v82l286 458h92z" unicode="4"/>
<glyph glyph-name="five" d="M465 708v-66h-290l-4 -213q42 17 95 17q100 0 162 -64t62 -163q0 -103 -68 -167t-170 -64q-68 0 -122 32t-82 94l71 31q21 -43 57 -67t82 -24q68 0 114 46t46 112q0 76 -49 122t-125 46q-74 0 -147 -39l7 367h361z" unicode="5"/>
<glyph glyph-name="six" d="M120 207q0 -69 44 -111t114 -42t114 42t44 111t-44 111t-114 42t-114 -42t-44 -111zM385 708l-193 -304l2 -2q34 24 98 24q92 0 154 -62t62 -157q0 -97 -65 -158t-165 -61t-165 61t-65 158q0 91 61 190l191 311h85z" unicode="6"/>
<glyph glyph-name="seven" d="M474 708v-66l-285 -642h-81l291 642h-345v66h420z" unicode="7"/>
<glyph glyph-name="eight" d="M430 199q0 63 -42 104t-110 41t-110 -41t-42 -104t42 -104t110 -41t110 41t42 104zM404 529q0 53 -36 89t-90 36t-90 -36t-36 -89t36 -89t90 -36t90 36t36 89zM186 375v2q-46 16 -76 60t-30 98q0 81 58 133t140 52t140 -52t58 -133q0 -54 -30 -98t-76 -60v-2 q60 -17 96 -67t36 -119q0 -89 -66 -145t-158 -56t-158 56t-66 145q0 69 36 119t96 67z" unicode="8"/>
<glyph glyph-name="nine" d="M436 501q0 69 -44 111t-114 42t-114 -42t-44 -111t44 -111t114 -42t114 42t44 111zM171 0l193 304l-2 2q-34 -24 -98 -24q-92 0 -154 62t-62 157q0 97 65 158t165 61t165 -61t65 -158q0 -91 -61 -190l-191 -311h-85z" unicode="9"/>
<glyph glyph-name="colon" horiz-adv-x="278" unicode=":" d="M193 48q1 -22 -15 -38t-39 -16t-39 16t-15 38q-1 22 15 38t39 16t39 -16t15 -38zM193 419q1 -22 -15 -38t-39 -16t-39 16t-15 38q-1 22 15 38t39 16t39 -16t15 -38z"/>
<glyph glyph-name="semicolon" horiz-adv-x="278" unicode=";" d="M202 419q0 -22 -16 -38t-38 -16t-38 16t-16 38t16 38t38 16t38 -16t16 -38zM213 95l-81 -235h-67l67 235h81z"/>
<glyph glyph-name="less" horiz-adv-x="666" unicode="&lt;" d="M588 564v-60l-429 -201l429 -201v-60l-510 238v46z"/>
<glyph glyph-name="equal" horiz-adv-x="666" unicode="=" d="M78 258h510v-60h-510v60zM78 408h510v-60h-510v60z"/>
<glyph glyph-name="greater" horiz-adv-x="666" unicode="&gt;" d="M78 504v60l510 -238v-46l-510 -238v60l429 201z"/>
<glyph glyph-name="question" horiz-adv-x="482" unicode="?" d="M300 48q0 -22 -16 -38t-38 -16t-38 16t-16 38t16 38t38 16t38 -16t16 -38zM276 243v-51h-72v83q2 29 18 57t40 50l48 44t40 51t16 62q0 51 -32 83t-85 32q-50 0 -84 -30t-43 -79l-75 9q11 78 67 122t134 44q82 0 136 -46t54 -129q0 -39 -12 -71t-30 -50l-39 -39t-39 -37 t-30 -44t-12 -61z"/>
<glyph glyph-name="at" horiz-adv-x="800" unicode="@" d="M538 487l22 63h56l-84 -282q-9 -31 -9 -51q1 -8 7 -14t16 -6q53 1 102 69t49 149q1 109 -85 183t-195 74q-128 0 -221 -96t-93 -222t93 -222t221 -96q75 0 144 32t109 89h63q-48 -83 -133 -129t-183 -46q-154 0 -264 108t-110 264t110 264t264 108q141 0 241 -87t99 -220 q0 -63 -23 -117t-58 -89q-34 -35 -74 -55t-75 -21q-63 0 -70 59h-2q-57 -59 -125 -59q-64 -1 -103 41t-39 109q0 109 66 195t168 87q86 0 114 -82h2zM503 409q-1 42 -25 71t-56 29q-68 -3 -118 -72t-50 -144q0 -42 26 -69t68 -27q61 0 108 72t47 140z"/>
<glyph glyph-name="A" horiz-adv-x="686" unicode="A" d="M343 624l-154 -372h307zM162 186l-78 -186h-84l308 708h70l308 -708h-84l-78 186h-362z"/>
<glyph glyph-name="B" horiz-adv-x="630" unicode="B" d="M168 338v-272h138q82 0 134 34t52 100q0 138 -177 138h-147zM168 642v-244h145q59 0 101 30t43 94q0 16 -5 32t-19 38t-47 36t-80 14h-138zM96 0v708h211q99 0 163 -42t65 -136q0 -58 -33 -100t-92 -55v-2q76 -6 118 -53t42 -124q0 -18 -4 -38t-22 -50q-16 -30 -42 -52 t-76 -40q-49 -16 -114 -16h-216z"/>
<glyph glyph-name="C" horiz-adv-x="704" unicode="C" d="M620 154l59 -42q-37 -58 -107 -94t-155 -36q-159 0 -264 106t-105 266t105 266t264 106q69 0 135 -28t110 -84l-63 -47q-22 37 -75 65t-107 28q-131 0 -211 -90t-80 -216t80 -216t211 -90q134 0 203 106z"/>
<glyph glyph-name="D" horiz-adv-x="741" unicode="D" d="M158 642v-576h140q78 0 140 24t100 65t58 92t19 107q1 56 -19 107t-58 92t-100 65t-140 24h-140zM86 0v708h235q68 0 133 -22t119 -66q54 -42 87 -112t33 -154t-33 -154t-87 -112t-119 -66q-65 -22 -133 -22h-235z"/>
<glyph glyph-name="E" horiz-adv-x="593" unicode="E" d="M168 335v-269h379v-66h-451v708h439v-66h-367v-241h343v-66h-343z"/>
<glyph glyph-name="F" d="M168 335v-335h-72v708h427v-66h-355v-241h330v-66h-330z" unicode="F"/>
<glyph glyph-name="G" horiz-adv-x="778" unicode="G" d="M673 631l-54 -53q-77 82 -202 82q-131 0 -211 -90t-80 -216t80 -216t211 -90q108 0 196 50v237h-169v66h241v-347q-121 -72 -268 -72q-159 0 -264 106t-105 266t105 266t264 106q161 0 256 -95z"/>
<glyph glyph-name="H" horiz-adv-x="722" unicode="H" d="M96 0v708h72v-307h386v307h72v-708h-72v335h-386v-335h-72z"/>
<glyph glyph-name="I" horiz-adv-x="264" unicode="I" d="M168 708v-708h-72v708h72z"/>
<glyph glyph-name="J" horiz-adv-x="482" unicode="J" d="M14 130l73 15q21 -97 112 -97q125 0 125 176v484h72v-514q0 -38 -10 -74t-32 -67t-62 -51t-95 -20q-75 0 -123 38t-60 110z"/>
<glyph glyph-name="K" horiz-adv-x="630" unicode="K" d="M168 708v-307h10l333 307h103l-357 -321l377 -387h-106l-348 365h-12v-365h-72v708h72z"/>
<glyph glyph-name="L" horiz-adv-x="500" unicode="L" d="M168 708v-642h330v-66h-402v708h72z"/>
<glyph glyph-name="M" horiz-adv-x="890" unicode="M" d="M206 708l239 -576l239 576h110v-708h-72v612h-2l-256 -612h-38l-256 612h-2v-612h-72v708h110z"/>
<glyph glyph-name="N" horiz-adv-x="778" unicode="N" d="M186 708l422 -600h2v600h72v-708h-90l-422 606h-2v-606h-72v708h90z"/>
<glyph glyph-name="O" horiz-adv-x="834" unicode="O" d="M708 354q0 126 -80 216t-211 90t-211 -90t-80 -216t80 -216t211 -90t211 90t80 216zM786 354q0 -160 -105 -266t-264 -106t-264 106t-105 266t105 266t264 106t264 -106t105 -266z"/>
<glyph glyph-name="P" horiz-adv-x="574" unicode="P" d="M168 642v-247h116q91 0 132 34t41 90q0 55 -41 89t-132 34h-116zM96 0v708h206q110 0 172 -48t61 -141q1 -94 -61 -142t-172 -48h-134v-329h-72z"/>
<glyph glyph-name="Q" horiz-adv-x="834" unicode="Q" d="M811 66v-66h-405q-154 0 -256 103t-102 260t102 260t256 103q153 0 255 -103t102 -260q0 -207 -166 -295v-2h214zM126 363q0 -123 76 -210t204 -87q126 0 202 87t77 210q-1 123 -77 210t-202 87q-128 0 -204 -87t-76 -210z"/>
<glyph glyph-name="R" horiz-adv-x="593" unicode="R" d="M168 642v-247h128q91 0 132 34t41 90q0 55 -41 89t-132 34h-128zM168 329v-329h-72v708h218q110 0 172 -48t61 -141q0 -75 -48 -125t-133 -58l204 -336h-88l-194 329h-120z"/>
<glyph glyph-name="S" d="M494 640l-63 -49q-47 69 -137 69q-61 0 -106 -33t-45 -95q-1 -52 37 -84t91 -48t107 -36t90 -63q38 -44 38 -114q0 -93 -72 -149t-161 -56q-146 0 -223 105l65 47q50 -86 161 -86q58 0 105 35t47 94q0 47 -27 77t-67 44t-88 31t-87 35q-40 18 -67 59t-27 102 q-1 97 67 149t162 52q125 0 200 -86z" unicode="S"/>
<glyph glyph-name="T" horiz-adv-x="574" unicode="T" d="M323 642v-642h-72v642h-237v66h546v-66h-237z"/>
<glyph glyph-name="U" horiz-adv-x="686" unicode="U" d="M602 708v-444q0 -39 -6 -75t-24 -75t-46 -67q-28 -29 -75 -47t-108 -18t-108 18t-75 47q-28 28 -46 67t-24 75t-6 75v444h72v-436q0 -58 14 -102t36 -66q20 -22 48 -36t48 -16q20 -4 41 -4t41 4t48 16q28 14 48 36t36 66q14 44 14 102v436h72z"/>
<glyph glyph-name="V" horiz-adv-x="611" unicode="V" d="M77 708l225 -600h2l232 600h78l-276 -708h-72l-269 708h80z"/>
<glyph glyph-name="W" horiz-adv-x="944" unicode="W" d="M80 708l170 -606h2l178 606h86l178 -606h2l168 606h80l-209 -708h-84l-178 606h-2l-178 -606h-84l-209 708h80z"/>
<glyph glyph-name="X" horiz-adv-x="630" unicode="X" d="M123 708l193 -283l198 283h90l-240 -336l260 -372h-95l-216 321l-217 -321h-90l259 372l-239 336h97z"/>
<glyph glyph-name="Y" horiz-adv-x="574" unicode="Y" d="M323 305v-305h-72v305l-265 403h90l211 -334l211 334h90z"/>
<glyph glyph-name="Z" d="M527 708v-60l-413 -582h419v-66h-510v60l414 582h-408v66h498z" unicode="Z"/>
<glyph glyph-name="bracketleft" horiz-adv-x="260" unicode="[" d="M227 732v-54h-96v-780h96v-54h-162v888h162z"/>
<glyph glyph-name="backslash" horiz-adv-x="370" unicode="\" d="M307 -18l-302 724l57 20l303 -725z"/>
<glyph glyph-name="bracketright" horiz-adv-x="260" unicode="]" d="M33 -156v54h96v780h-96v54h162v-888h-162z"/>
<glyph glyph-name="asciicircum" horiz-adv-x="666" unicode="^" d="M80 275l229 433h48l229 -433h-62l-191 361l-191 -361h-62z"/>
<glyph glyph-name="underscore" horiz-adv-x="500" unicode="_" d="M0 -125v50h500v-50h-500z"/>
<glyph glyph-name="grave" horiz-adv-x="240" unicode="`" d="M122 564l-132 144h91l100 -144h-59z"/>
<glyph glyph-name="a" horiz-adv-x="519" unicode="a" d="M372 233h-34q-218 0 -218 -99q0 -42 32 -64t78 -22q70 0 106 42t36 109v34zM339 287h33v12q0 121 -120 121q-82 0 -143 -55l-40 47q66 68 198 68q75 0 123 -42t48 -124v-209q0 -55 8 -105h-64q-6 34 -6 76h-2q-54 -88 -165 -88q-67 0 -114 36t-47 101q0 37 13 65t38 45 t52 28t63 16t64 7q27 2 61 1z"/>
<glyph glyph-name="b" horiz-adv-x="611" unicode="b" d="M499 234q-1 80 -49 133t-128 53q-81 0 -134 -54t-53 -132t53 -132t134 -54q80 0 128 53t49 133zM72 0v756h66v-366h2q30 44 80 67t102 23q109 0 179 -70t70 -176t-70 -176t-179 -70q-52 0 -102 23t-80 67h-2v-78h-66z"/>
<glyph glyph-name="c" horiz-adv-x="482" unicode="c" d="M467 399l-54 -41q-17 26 -49 44t-68 18h-3q-78 0 -125 -52q-48 -52 -48 -134t48 -134q47 -52 125 -52h3q36 0 68 18t49 44l54 -41q-68 -79 -171 -81h-3q-111 0 -177 68q-68 70 -68 178t68 178q67 69 177 68h3q103 -2 171 -81z"/>
<glyph glyph-name="d" horiz-adv-x="611" unicode="d" d="M112 234q0 -80 48 -133t129 -53t134 54t53 132t-53 132t-134 54t-129 -53t-48 -133zM539 756v-756h-66v78h-2q-31 -44 -81 -67t-101 -23q-109 0 -179 70t-70 176t70 176t179 70q51 0 101 -23t81 -67h2v366h66z"/>
<glyph glyph-name="e" d="M120 270h316q0 68 -41 109t-111 41q-64 0 -114 -46t-50 -104zM508 216h-390q6 -72 54 -120t118 -48q49 0 89 24t61 57l51 -42q-78 -99 -201 -99q-104 0 -173 70t-69 176t68 176t168 70q104 -2 164 -68t60 -166v-30z" unicode="e"/>
<glyph glyph-name="f" horiz-adv-x="296" unicode="f" d="M290 468v-60h-111v-408h-66v408h-99v60h99v128q0 172 157 172q24 0 57 -7l-12 -60q-28 7 -51 7q-50 0 -68 -30t-17 -90v-120h111z"/>
<glyph glyph-name="g" horiz-adv-x="611" unicode="g" d="M120 240q0 -74 50 -127t124 -53q76 0 128 50q50 48 49 122v8q-1 76 -49 128t-128 52q-74 0 -124 -53t-50 -127zM59 -146l49 52q30 -40 77 -63t102 -23q95 0 139 50t43 134v84h-2q-59 -88 -175 -88q-102 0 -173 68t-71 170t68 172t170 70q114 0 181 -90h2v78h66v-464 q1 -34 -5 -65t-23 -65t-43 -58t-74 -40q-46 -16 -106 -16q-137 0 -225 94z"/>
<glyph glyph-name="h" d="M72 0v756h66v-363h2q22 39 66 63t91 24q88 0 132 -48t44 -135v-297h-66v259q0 81 -28 121t-99 40q-8 0 -20 -2t-36 -12q-22 -10 -40 -28t-32 -54t-14 -84v-240h-66z" unicode="h"/>
<glyph glyph-name="i" horiz-adv-x="240" unicode="i" d="M168 648q0 -20 -14 -34t-34 -14t-34 14t-14 34t14 34t34 14t34 -14t14 -34zM153 468v-468h-66v468h66z"/>
<glyph glyph-name="j" horiz-adv-x="240" unicode="j" d="M168 648q0 -20 -14 -34t-34 -14t-34 14t-14 34t14 34t34 14t34 -14t14 -34zM-31 -230l9 57l3 -1q22 -6 35 -6q43 0 57 27t14 71v550h66v-561v-4q-1 -17 -1 -29t-7 -36t-19 -38q-12 -16 -40 -28q-27 -12 -65 -12q-28 0 -52 10z"/>
<glyph glyph-name="k" horiz-adv-x="482" unicode="k" d="M138 756v-499l221 211h99l-233 -214l258 -254h-102l-243 246v-246h-66v756h66z"/>
<glyph glyph-name="l" horiz-adv-x="240" unicode="l" d="M153 756v-756h-66v756h66z"/>
<glyph glyph-name="m" horiz-adv-x="852" unicode="m" d="M72 0v364q0 16 -5 104h71v-71h2q23 39 65 61t86 22q111 0 149 -97q20 45 63 71t91 26q88 0 132 -48t44 -135v-297h-66v273q0 75 -26 111t-92 36q-68 0 -100 -49t-32 -122v-249h-66v273q0 75 -26 111t-92 36q-8 0 -20 -2t-33 -12t-37 -28t-30 -54q-12 -36 -12 -84v-240 h-66z"/>
<glyph glyph-name="n" d="M67 468h68q3 -25 3 -75h2q22 39 66 63t91 24q88 0 132 -48t44 -135v-297h-66v259q0 81 -28 121t-99 40q-8 0 -20 -2t-36 -12q-22 -10 -40 -28t-32 -54t-14 -84v-240h-66v365q0 18 -5 103z" unicode="n"/>
<glyph glyph-name="o" horiz-adv-x="593" unicode="o" d="M473 234q-1 80 -49 133t-128 53t-128 -53t-48 -133t48 -133t128 -53t128 53t49 133zM545 234q0 -106 -70 -176t-179 -70q-108 0 -178 70t-70 176t70 176t178 70q109 0 179 -70t70 -176z"/>
<glyph glyph-name="p" horiz-adv-x="611" unicode="p" d="M499 234q-1 80 -49 133t-128 53q-81 0 -134 -54t-53 -132t53 -132t134 -54q80 0 128 53t49 133zM72 -288v756h66v-78h2q30 44 80 67t102 23q109 0 179 -70t70 -176t-70 -176t-179 -70q-52 0 -102 23t-80 67h-2v-366h-66z"/>
<glyph glyph-name="q" horiz-adv-x="611" unicode="q" d="M112 234q0 -80 48 -133t129 -53t134 54t53 132t-53 132t-134 54t-129 -53t-48 -133zM539 468v-756h-66v366h-2q-31 -44 -81 -67t-101 -23q-109 0 -179 70t-70 176t70 176t179 70q51 0 101 -23t81 -67h2v78h66z"/>
<glyph glyph-name="r" horiz-adv-x="332" unicode="r" d="M79 0v322q0 10 -4 146h65v-87h2q16 43 54 71t96 28q28 0 49 -6l-13 -65q-13 5 -38 5q-69 0 -107 -48t-38 -102v-264h-66z"/>
<glyph glyph-name="s" horiz-adv-x="426" unicode="s" d="M379 396l-59 -39q-33 63 -101 63q-39 0 -68 -18t-29 -52q0 -31 22 -47t70 -27l67 -16q50 -12 82 -46t32 -82q0 -72 -53 -108t-129 -36q-119 0 -180 91l57 39q45 -70 123 -70q45 0 77 20t33 58q0 32 -23 48t-66 27l-64 15q-120 30 -120 123q0 69 50 105t123 36 q115 0 156 -84z"/>
<glyph glyph-name="t" horiz-adv-x="332" unicode="t" d="M314 468v-60h-135v-276q0 -48 17 -66t51 -18q35 0 68 18l3 -61q-37 -17 -89 -17q-47 0 -81 28t-35 97v295h-99v60h99v132h66v-132h135z"/>
<glyph glyph-name="u" d="M478 0h-68q-3 25 -3 75h-2q-22 -39 -66 -63t-91 -24q-88 0 -132 48t-44 135v297h66v-259q0 -81 28 -121t99 -40q9 0 21 2t35 12t41 28t31 54q14 36 14 84v240h66v-365q0 -18 5 -103z" unicode="u"/>
<glyph glyph-name="v" horiz-adv-x="482" unicode="v" d="M468 468l-190 -468h-74l-190 468h79l149 -394h2l149 394h75z"/>
<glyph glyph-name="w" horiz-adv-x="722" unicode="w" d="M14 468h78l108 -380h2l125 380h68l125 -380h2l108 380h78l-148 -468h-74l-124 384h-2l-124 -384h-74z"/>
<glyph glyph-name="x" horiz-adv-x="482" unicode="x" d="M0 0l193 250l-170 218h90l130 -175l124 175h82l-163 -218l196 -250h-90l-157 205l-151 -205h-84z"/>
<glyph glyph-name="y" horiz-adv-x="482" unicode="y" d="M99 468l147 -387l143 387h80l-234 -590q-23 -58 -57 -88t-90 -30q-38 0 -61 7l7 64q21 -11 50 -11q34 0 54 21t36 63l34 90l-192 474h83z"/>
<glyph glyph-name="z" horiz-adv-x="426" unicode="z" d="M393 468v-48l-274 -360h284v-60h-380v48l274 360h-260v60h356z"/>
<glyph glyph-name="braceleft" horiz-adv-x="260" unicode="{" d="M12 258v60q36 0 62 30t27 81v178q0 65 30 95t78 30h64v-60h-56q-17 0 -28 -7t-15 -21t-6 -25q-1 -11 -1 -30v-172q-1 -63 -31 -93t-58 -35v-2q28 -5 58 -35t31 -93v-172q0 -19 1 -30q2 -11 6 -25t15 -21t28 -7h56v-60h-64q-48 0 -78 30t-30 95v178q-1 51 -27 81t-62 30z "/>
<glyph glyph-name="bar" horiz-adv-x="222" unicode="|" d="M81 750h60v-1000h-60v1000z"/>
<glyph glyph-name="braceright" horiz-adv-x="260" unicode="}" d="M248 318v-60q-36 0 -62 -30t-27 -81v-178q0 -65 -30 -95t-78 -30h-64v60h56q17 0 28 7t15 21t6 25q1 11 1 30v172q1 63 31 93t58 35v2q-28 5 -58 35t-31 93v172q0 19 -1 30q-2 11 -6 25t-15 21t-28 7h-56v60h64q48 0 78 -30t30 -95v-178q1 -51 27 -81t62 -30z"/>
<glyph glyph-name="asciitilde" horiz-adv-x="666" unicode="~" d="M535 368l42 -40q-19 -27 -35 -44t-43 -33q-28 -16 -58 -16q-33 1 -51 5t-53 24q-7 4 -25 14t-28 16t-26 12t-28 5q-50 0 -99 -73l-42 40q19 27 35 44t43 33q28 16 58 16q33 -1 51 -5t53 -24q7 -4 25 -14t28 -16t26 -12t28 -5q50 0 99 73z"/>
<glyph glyph-name="exclamdown" horiz-adv-x="278" unicode="¡" d="M85 432q-1 22 15 38t39 16t39 -16t15 -38q1 -22 -15 -38t-39 -16t-39 16t-15 38zM103 -228v516h72v-516h-72z"/>
<glyph glyph-name="cent" d="M336 419v-370q35 2 63 19t44 42l54 -41q-63 -75 -161 -80v-61h-48v63q-98 9 -154 77t-56 166t56 166t154 77v63h48v-61q98 -5 161 -80l-54 -41q-16 25 -44 42t-63 19zM288 51v366q-64 -11 -101 -61t-37 -122t37 -122t101 -61z" unicode="¢"/>
<glyph glyph-name="sterling" d="M426 395v-60h-168v-275h253v-60h-427v60h102v275h-96v60h96v87q0 238 212 238q98 0 155 -60l-47 -51q-46 51 -111 51q-137 0 -137 -184v-81h168z" unicode="£"/>
<glyph glyph-name="currency" d="M97 354q0 -78 53 -134t129 -55q75 -1 127 55t53 134q-1 78 -53 134t-127 55q-76 1 -129 -55t-53 -134zM525 559l-53 -53q54 -69 53 -152q1 -83 -53 -152l53 -53l-44 -44l-53 53q-69 -53 -150 -53t-150 53l-53 -53l-44 44l53 53q-54 69 -53 152q-1 83 53 152l-53 53l44 44 l53 -53q69 53 150 53t150 -53l53 53z" unicode="¤"/>
<glyph glyph-name="yen" d="M79 223h163v77l-7 12h-156v54h124l-205 342h85l195 -340l195 340h85l-204 -342h123v-54h-156l-7 -12v-77h163v-54h-163v-169h-72v169h-163v54z" unicode="¥"/>
<glyph glyph-name="brokenbar" horiz-adv-x="222" unicode="¦" d="M81 175h60v-350h-60v350zM81 675h60v-350h-60v350z"/>
<glyph glyph-name="section" d="M242 404l-17 -7q-74 -31 -74 -84q0 -10 3 -20t7 -17q5 -6 13 -14t13 -12t17 -12q12 -7 16 -9q4 -3 19 -9q14 -6 16 -7l66 -32q29 13 51 37t22 52q0 40 -26 64t-69 44zM453 626l-59 -30q-32 64 -108 64q-32 0 -55 -10t-33 -27q-10 -16 -16 -29q-4 -13 -4 -24q0 -34 20 -54 t61 -41l110 -56q97 -50 97 -139q0 -84 -87 -131q37 -27 53 -55t16 -70q0 -79 -54 -121t-134 -42q-69 0 -122 29t-76 86l66 32q16 -44 52 -66t80 -21q48 1 82 25t34 77t-70 88l-137 67q-90 43 -90 130q0 88 104 134q-17 11 -25 17q-8 5 -22 21q-16 16 -23 36t-7 46 q0 74 50 116t125 42q64 0 110 -26t62 -68z" unicode="§"/>
<glyph glyph-name="dieresis" horiz-adv-x="240" unicode="¨" d="M165 647q1 19 15 35t36 16t36 -16t15 -35q-1 -19 -15 -35t-36 -16t-36 16t-15 35zM-27 647q1 19 15 35t36 16t36 -16t15 -35q-1 -19 -15 -35t-36 -16t-36 16t-15 35z"/>
<glyph glyph-name="copyright" horiz-adv-x="800" unicode="©" d="M85 352q-1 -132 91 -224t224 -92t224 92t91 228q1 134 -91 225t-224 91t-224 -92t-91 -228zM25 352q0 158 110 266t265 108t265 -107t110 -263q0 -158 -110 -266t-265 -108t-265 107t-110 263zM545 282h57q-16 -72 -67 -114t-120 -42q-99 0 -161 64t-62 164q0 101 60 164 t160 63q74 1 126 -39t63 -113h-56q-9 43 -45 71t-87 27q-73 -1 -117 -49t-44 -122q0 -72 46 -124t117 -52q50 0 86 29t44 73z"/>
<glyph glyph-name="ordfeminine" horiz-adv-x="337" unicode="ª" d="M228 559h-13q-124 0 -124 -49q-1 -18 17 -28t42 -10q78 0 78 87zM136 424q-44 0 -74 22t-31 61q0 49 40 75t135 25h22v8q0 57 -64 57q-51 0 -89 -30l-32 37q43 41 119 41q66 0 96 -28t30 -62v-137q0 -21 5 -63h-54l-3 36h-1q-29 -42 -99 -42z"/>
<glyph glyph-name="guillemotleft" horiz-adv-x="482" unicode="«" d="M421 416l-115 -176l115 -176l-47 -33l-140 209l140 209zM239 416l-115 -176l115 -176l-47 -33l-140 209l140 209z"/>
<glyph glyph-name="logicalnot" horiz-adv-x="666" unicode="¬" d="M588 408v-278h-60v218h-450v60h510z"/>
<glyph glyph-name="registered" horiz-adv-x="800" unicode="®" d="M85 352q-1 -132 91 -224t224 -92t224 92t91 228q1 134 -91 225t-224 91t-224 -92t-91 -228zM25 352q0 158 110 266t265 108t265 -107t110 -263q0 -158 -110 -266t-265 -108t-265 107t-110 263zM321 513v-138h74q29 -1 45 1t34 8t28 22q9 16 9 40q-1 40 -27 54t-70 13h-93 zM261 136v431h158q78 0 115 -30t37 -94q0 -55 -31 -83t-83 -34l124 -190h-65l-118 185h-77v-185h-60z"/>
<glyph glyph-name="macron" horiz-adv-x="240" unicode="¯" d="M255 654v-54h-270v54h270z"/>
<glyph glyph-name="degree" horiz-adv-x="400" unicode="°" d="M301 571q1 41 -29 71t-72 30t-72 -30t-29 -71q-1 -41 29 -71t72 -30t72 30t29 71zM349 571q-1 -65 -43 -107t-106 -42t-106 42t-43 107q1 65 43 107t106 42t106 -42t43 -107z"/>
<glyph glyph-name="plusminus" horiz-adv-x="666" unicode="±" d="M78 48v60h510v-60h-510zM78 347v60h225v156h60v-156h225v-60h-225v-151h-60v151h-225z"/>
<glyph glyph-name="twosuperior" horiz-adv-x="361" unicode="²" d="M327 343v-54h-293v57l171 164q58 56 58 96q0 24 -24 42t-52 18q-32 0 -56 -16t-32 -40l-56 9q11 49 49 75t92 26q59 0 99 -29t40 -81q1 -30 -15 -60t-32 -46t-46 -44l-130 -117h227z"/>
<glyph glyph-name="threesuperior" horiz-adv-x="361" unicode="³" d="M130 483v54h24q44 -1 72 17t28 50q0 26 -20 44t-52 18q-29 0 -48 -10t-38 -36l-47 33q46 67 132 67q57 0 95 -30t38 -80q0 -34 -23 -61t-59 -38v-2q45 -7 70 -35t25 -69q0 -57 -42 -89t-105 -33q-109 0 -146 86l52 30q14 -32 36 -47t62 -15q30 0 56 22t27 47q0 30 -24 54 t-84 23h-29z"/>
<glyph glyph-name="acute" horiz-adv-x="240" unicode="´" d="M250 708l-132 -144h-59l100 144h91z"/>
<glyph glyph-name="mu" d="M72 -228v696h66v-259q0 -89 28 -125t99 -36q62 0 102 48t40 132v240h66v-365q0 -18 5 -103h-71v76h-2q-22 -36 -67 -62t-90 -26q-69 0 -110 29v-245h-66z" unicode="µ"/>
<glyph glyph-name="paragraph" horiz-adv-x="600" unicode="¶" d="M513 708v-834h-66v780h-124v-780h-66v442q-91 0 -150 54t-59 132q0 98 61 152t167 54h237z"/>
<glyph glyph-name="periodcentered" horiz-adv-x="278" unicode="·" d="M193 314q1 -22 -15 -38t-39 -16t-39 16t-15 38q-1 22 15 38t39 16t39 -16t15 -38z"/>
<glyph glyph-name="cedilla" horiz-adv-x="240" unicode="¸" d="M156 0l-45 -60l2 -1q19 7 36 7q33 0 55 -20t22 -55q0 -43 -34 -65t-81 -23q-52 0 -97 24l16 36q34 -18 74 -18q26 0 44 11t18 34q0 14 -11 27t-38 13q-22 0 -46 -11l-18 17l62 84h41z"/>
<glyph glyph-name="onesuperior" horiz-adv-x="361" unicode="¹" d="M225 714v-425h-60v365l-82 -67l-29 38l117 89h54z"/>
<glyph glyph-name="ordmasculine" horiz-adv-x="385" unicode="º" d="M294 571q0 41 -29 71t-73 30t-72 -30t-29 -71q1 -41 29 -70t72 -29t73 29t29 70zM354 571q0 -63 -46 -105t-116 -42t-116 42t-45 105q-1 65 45 107t116 42t116 -42t46 -107z"/>
<glyph glyph-name="guillemotright" horiz-adv-x="482" unicode="»" d="M61 64l115 176l-115 176l47 33l140 -209l-140 -209zM243 64l115 176l-115 176l47 33l140 -209l-140 -209z"/>
<glyph glyph-name="onequarter" horiz-adv-x="834" unicode="¼" d="M650 148v217h-2l-136 -217h138zM710 425v-277h60v-54h-60v-94h-60v94h-192v62l179 269h73zM235 714v-425h-60v365l-82 -67l-29 38l117 89h54zM205 -32l-52 32l451 740l51 -31z"/>
<glyph glyph-name="onehalf" horiz-adv-x="834" unicode="½" d="M795 54v-54h-293v57l171 164q58 56 58 96q0 24 -24 42t-52 18q-32 0 -56 -16t-32 -40l-56 9q11 48 49 74t92 27q59 0 99 -29t40 -81q1 -29 -15 -59t-32 -46t-46 -45l-130 -117h227zM210 714v-425h-60v365l-82 -67l-29 38l117 89h54zM180 -32l-52 32l451 740l51 -31z"/>
<glyph glyph-name="threequarters" horiz-adv-x="834" unicode="¾" d="M670 148v217h-2l-136 -217h138zM730 425v-277h60v-54h-60v-94h-60v94h-192v62l179 269h73zM139 483v54h24q43 0 71 18t29 53q-1 24 -21 41t-51 17q-29 0 -48 -10t-38 -36l-47 33q46 67 132 67q56 0 94 -30t39 -80q0 -34 -23 -61t-59 -38v-2q45 -7 70 -35t25 -69 q0 -57 -42 -89t-105 -33q-109 0 -145 86l51 30q13 -32 35 -47t63 -15q31 0 57 22t26 47q0 30 -24 54t-84 23h-29zM245 -32l-52 32l451 740l51 -31z"/>
<glyph glyph-name="questiondown" horiz-adv-x="482" unicode="¿" d="M182 432q0 22 16 38t38 16t38 -16t16 -38t-16 -38t-38 -16t-38 16t-16 38zM206 237v51h72v-83q-2 -29 -18 -57t-40 -50l-48 -44t-40 -51t-16 -62q0 -51 32 -83t85 -32q50 0 84 30t43 79l75 -9q-11 -78 -67 -122t-134 -44q-82 0 -136 46t-54 129q0 39 12 71t30 50l39 39 t39 37t30 44t12 61z"/>
<glyph glyph-name="Agrave" horiz-adv-x="686" unicode="À" d="M345 739l-132 144h91l100 -144h-59zM343 624l-154 -372h307zM162 186l-78 -186h-84l308 708h70l308 -708h-84l-78 186h-362z"/>
<glyph glyph-name="Aacute" horiz-adv-x="686" unicode="Á" d="M473 883l-132 -144h-59l100 144h91zM343 624l-154 -372h307zM162 186l-78 -186h-84l308 708h70l308 -708h-84l-78 186h-362z"/>
<glyph glyph-name="Acircumflex" horiz-adv-x="686" unicode="Â" d="M383 883l109 -144h-66l-83 108l-83 -108h-66l109 144h80zM343 624l-154 -372h307zM162 186l-78 -186h-84l308 708h70l308 -708h-84l-78 186h-362z"/>
<glyph glyph-name="Atilde" horiz-adv-x="686" unicode="Ã" d="M224 751h-43q18 104 92 104q27 0 73 -23q50 -23 67 -23q37 0 49 50h43q-18 -104 -92 -104q-23 0 -73 23q-44 23 -67 23q-37 0 -49 -50zM343 624l-154 -372h307zM162 186l-78 -186h-84l308 708h70l308 -708h-84l-78 186h-362z"/>
<glyph glyph-name="Adieresis" horiz-adv-x="686" unicode="Ä" d="M388 822q0 20 14 36t37 15q23 1 37 -15t14 -36t-14 -36t-37 -15q-23 -1 -37 15t-14 36zM196 822q0 20 14 36t37 15q23 1 37 -15t14 -36t-14 -36t-37 -15q-23 -1 -37 15t-14 36zM343 624l-154 -372h307zM162 186l-78 -186h-84l308 708h70l308 -708h-84l-78 186h-362z"/>
<glyph glyph-name="Aring" horiz-adv-x="686" unicode="Å" d="M403 825q1 25 -17 42t-43 17t-43 -17t-17 -42q-1 -25 17 -42t43 -17t43 17t17 42zM439 825q-1 -39 -29 -67t-67 -28t-67 28t-29 67q1 39 29 67t67 28t67 -28t29 -67zM343 624l-154 -372h307zM162 186l-78 -186h-84l308 708h70l308 -708h-84l-78 186h-362z"/>
<glyph glyph-name="AE" horiz-adv-x="944" unicode="Æ" d="M255 264h256v378h-11zM583 642v-241h276v-66h-276v-269h306v-66h-378v198h-298l-128 -198h-85l461 708h416v-66h-294z"/>
<glyph glyph-name="Ccedilla" horiz-adv-x="704" unicode="Ç" d="M620 154l59 -42q-37 -58 -107 -94t-155 -36q-14 0 -21 2l-33 -44l2 -1q19 7 36 7q33 0 55 -20t22 -55q0 -43 -34 -65t-81 -23q-52 0 -97 24l16 36q34 -18 74 -18q26 0 44 11t18 34q0 14 -11 27t-38 13q-22 0 -46 -11l-18 17l52 71q-137 19 -223 121t-86 246 q0 160 105 266t264 106q69 0 135 -28t110 -84l-63 -47q-22 37 -75 65t-107 28q-131 0 -211 -90t-80 -216t80 -216t211 -90q134 0 203 106z"/>
<glyph glyph-name="Egrave" horiz-adv-x="593" unicode="È" d="M299 739l-132 144h91l100 -144h-59zM168 335v-269h379v-66h-451v708h439v-66h-367v-241h343v-66h-343z"/>
<glyph glyph-name="Eacute" horiz-adv-x="593" unicode="É" d="M427 883l-132 -144h-59l100 144h91zM168 335v-269h379v-66h-451v708h439v-66h-367v-241h343v-66h-343z"/>
<glyph glyph-name="Ecircumflex" horiz-adv-x="593" unicode="Ê" d="M337 883l109 -144h-66l-83 108l-83 -108h-66l109 144h80zM168 335v-269h379v-66h-451v708h439v-66h-367v-241h343v-66h-343z"/>
<glyph glyph-name="Edieresis" horiz-adv-x="593" unicode="Ë" d="M342 822q0 20 14 36t37 15q23 1 37 -15t14 -36t-14 -36t-37 -15q-23 -1 -37 15t-14 36zM150 822q0 20 14 36t37 15q23 1 37 -15t14 -36t-14 -36t-37 -15q-23 -1 -37 15t-14 36zM168 335v-269h379v-66h-451v708h439v-66h-367v-241h343v-66h-343z"/>
<glyph glyph-name="Igrave" horiz-adv-x="264" unicode="Ì" d="M134 739l-132 144h91l100 -144h-59zM168 708v-708h-72v708h72z"/>
<glyph glyph-name="Iacute" horiz-adv-x="264" unicode="Í" d="M262 883l-132 -144h-59l100 144h91zM168 708v-708h-72v708h72z"/>
<glyph glyph-name="Icircumflex" horiz-adv-x="264" unicode="Î" d="M172 883l109 -144h-66l-83 108l-83 -108h-66l109 144h80zM168 708v-708h-72v708h72z"/>
<glyph glyph-name="Idieresis" horiz-adv-x="264" unicode="Ï" d="M177 822q1 20 15 36t36 15q22 1 36 -15t15 -36q-1 -20 -15 -36t-36 -15q-22 -1 -36 15t-15 36zM-15 822q1 20 15 36t36 15q22 1 36 -15t15 -36q-1 -20 -15 -36t-36 -15q-22 -1 -36 15t-15 36zM168 708v-708h-72v708h72z"/>
<glyph glyph-name="Eth" horiz-adv-x="741" unicode="Ð" d="M158 347v-281h140q78 0 140 24t100 65t58 92t19 107q1 56 -19 107t-58 92t-100 65t-140 24h-140v-241h258v-54h-258zM86 0v347h-73v54h73v307h235q68 0 133 -22t119 -66q54 -42 87 -112t33 -154t-33 -154t-87 -112t-119 -66q-65 -22 -133 -22h-235z"/>
<glyph glyph-name="Ntilde" horiz-adv-x="778" unicode="Ñ" d="M270 751h-43q18 104 92 104q27 0 73 -23q50 -23 67 -23q37 0 49 50h43q-18 -104 -92 -104q-23 0 -73 23q-44 23 -67 23q-37 0 -49 -50zM186 708l422 -600h2v600h72v-708h-90l-422 606h-2v-606h-72v708h90z"/>
<glyph glyph-name="Ograve" horiz-adv-x="834" unicode="Ò" d="M419 739l-132 144h91l100 -144h-59zM708 354q0 126 -80 216t-211 90t-211 -90t-80 -216t80 -216t211 -90t211 90t80 216zM786 354q0 -160 -105 -266t-264 -106t-264 106t-105 266t105 266t264 106t264 -106t105 -266z"/>
<glyph glyph-name="Oacute" horiz-adv-x="834" unicode="Ó" d="M547 883l-132 -144h-59l100 144h91zM708 354q0 126 -80 216t-211 90t-211 -90t-80 -216t80 -216t211 -90t211 90t80 216zM786 354q0 -160 -105 -266t-264 -106t-264 106t-105 266t105 266t264 106t264 -106t105 -266z"/>
<glyph glyph-name="Ocircumflex" horiz-adv-x="834" unicode="Ô" d="M457 883l109 -144h-66l-83 108l-83 -108h-66l109 144h80zM708 354q0 126 -80 216t-211 90t-211 -90t-80 -216t80 -216t211 -90t211 90t80 216zM786 354q0 -160 -105 -266t-264 -106t-264 106t-105 266t105 266t264 106t264 -106t105 -266z"/>
<glyph glyph-name="Otilde" horiz-adv-x="834" unicode="Õ" d="M298 751h-43q18 104 92 104q27 0 73 -23q50 -23 67 -23q37 0 49 50h43q-18 -104 -92 -104q-23 0 -73 23q-44 23 -67 23q-37 0 -49 -50zM708 354q0 126 -80 216t-211 90t-211 -90t-80 -216t80 -216t211 -90t211 90t80 216zM786 354q0 -160 -105 -266t-264 -106t-264 106 t-105 266t105 266t264 106t264 -106t105 -266z"/>
<glyph glyph-name="Odieresis" horiz-adv-x="834" unicode="Ö" d="M462 822q0 20 14 36t37 15q23 1 37 -15t14 -36t-14 -36t-37 -15q-23 -1 -37 15t-14 36zM270 822q0 20 14 36t37 15q23 1 37 -15t14 -36t-14 -36t-37 -15q-23 -1 -37 15t-14 36zM708 354q0 126 -80 216t-211 90t-211 -90t-80 -216t80 -216t211 -90t211 90t80 216zM786 354 q0 -160 -105 -266t-264 -106t-264 106t-105 266t105 266t264 106t264 -106t105 -266z"/>
<glyph glyph-name="multiply" horiz-adv-x="666" unicode="×" d="M174 505l159 -159l158 159l43 -42l-159 -160l159 -159l-43 -43l-158 159l-159 -159l-42 43l159 159l-159 160z"/>
<glyph glyph-name="Oslash" horiz-adv-x="834" unicode="Ø" d="M194 152l411 441q-77 67 -188 67q-131 0 -211 -90t-80 -216q0 -119 68 -202zM640 556l-411 -441q77 -67 188 -67q131 0 211 90t80 216q0 117 -68 202zM766 692l-76 -82q96 -102 96 -256q0 -160 -105 -266t-264 -106q-138 0 -236 81l-76 -81l-37 34l76 82q-96 102 -96 256 q0 160 105 266t264 106q136 0 236 -81l76 81z"/>
<glyph glyph-name="Ugrave" horiz-adv-x="686" unicode="Ù" d="M345 739l-132 144h91l100 -144h-59zM602 708v-444q0 -39 -6 -75t-24 -75t-46 -67q-28 -29 -75 -47t-108 -18t-108 18t-75 47q-28 28 -46 67t-24 75t-6 75v444h72v-436q0 -58 14 -102t36 -66q20 -22 48 -36t48 -16q20 -4 41 -4t41 4t48 16q28 14 48 36t36 66q14 44 14 102 v436h72z"/>
<glyph glyph-name="Uacute" horiz-adv-x="686" unicode="Ú" d="M473 883l-132 -144h-59l100 144h91zM602 708v-444q0 -39 -6 -75t-24 -75t-46 -67q-28 -29 -75 -47t-108 -18t-108 18t-75 47q-28 28 -46 67t-24 75t-6 75v444h72v-436q0 -58 14 -102t36 -66q20 -22 48 -36t48 -16q20 -4 41 -4t41 4t48 16q28 14 48 36t36 66q14 44 14 102 v436h72z"/>
<glyph glyph-name="Ucircumflex" horiz-adv-x="686" unicode="Û" d="M383 883l109 -144h-66l-83 108l-83 -108h-66l109 144h80zM602 708v-444q0 -39 -6 -75t-24 -75t-46 -67q-28 -29 -75 -47t-108 -18t-108 18t-75 47q-28 28 -46 67t-24 75t-6 75v444h72v-436q0 -58 14 -102t36 -66q20 -22 48 -36t48 -16q20 -4 41 -4t41 4t48 16 q28 14 48 36t36 66q14 44 14 102v436h72z"/>
<glyph glyph-name="Udieresis" horiz-adv-x="686" unicode="Ü" d="M388 822q0 20 14 36t37 15q23 1 37 -15t14 -36t-14 -36t-37 -15q-23 -1 -37 15t-14 36zM196 822q0 20 14 36t37 15q23 1 37 -15t14 -36t-14 -36t-37 -15q-23 -1 -37 15t-14 36zM602 708v-444q0 -39 -6 -75t-24 -75t-46 -67q-28 -29 -75 -47t-108 -18t-108 18t-75 47 q-28 28 -46 67t-24 75t-6 75v444h72v-436q0 -58 14 -102t36 -66q20 -22 48 -36t48 -16q20 -4 41 -4t41 4t48 16q28 14 48 36t36 66q14 44 14 102v436h72z"/>
<glyph glyph-name="Yacute" horiz-adv-x="574" unicode="Ý" d="M417 883l-132 -144h-59l100 144h91zM323 305v-305h-72v305l-265 403h90l211 -334l211 334h90z"/>
<glyph glyph-name="Thorn" horiz-adv-x="574" unicode="Þ" d="M168 486v-247h116q28 -1 48 1t45 10t41 20t28 36q11 24 11 57t-11 57q-12 24 -28 36t-41 20t-45 8q-20 2 -48 2h-116zM96 0v708h72v-156h160q92 0 150 -48t57 -141q0 -93 -57 -141t-150 -49h-160v-173h-72z"/>
<glyph glyph-name="germandbls" horiz-adv-x="593" unicode="ß" d="M150 550v-550h-66v544q0 100 50 162t161 62q83 0 137 -48t54 -129q0 -117 -116 -159v-2q84 -8 128 -66t43 -141q1 -107 -65 -171t-172 -64q-33 0 -58 8v57q20 -5 48 -5q80 0 128 47t47 129q0 175 -201 175v60q66 -1 106 29t40 94q0 58 -35 92t-88 34q-73 0 -107 -48 t-34 -110z"/>
<glyph glyph-name="agrave" horiz-adv-x="519" unicode="à" d="M262 564l-132 144h91l100 -144h-59zM372 233h-34q-218 0 -218 -99q0 -42 32 -64t78 -22q70 0 106 42t36 109v34zM339 287h33v12q0 121 -120 121q-82 0 -143 -55l-40 47q66 68 198 68q75 0 123 -42t48 -124v-209q0 -55 8 -105h-64q-6 34 -6 76h-2q-54 -88 -165 -88 q-67 0 -114 36t-47 101q0 37 13 65t38 45t52 28t63 16t64 7q27 2 61 1z"/>
<glyph glyph-name="aacute" horiz-adv-x="519" unicode="á" d="M390 708l-132 -144h-59l100 144h91zM372 233h-34q-218 0 -218 -99q0 -42 32 -64t78 -22q70 0 106 42t36 109v34zM339 287h33v12q0 121 -120 121q-82 0 -143 -55l-40 47q66 68 198 68q75 0 123 -42t48 -124v-209q0 -55 8 -105h-64q-6 34 -6 76h-2q-54 -88 -165 -88 q-67 0 -114 36t-47 101q0 37 13 65t38 45t52 28t63 16t64 7q27 2 61 1z"/>
<glyph glyph-name="acircumflex" horiz-adv-x="519" unicode="â" d="M300 708l109 -144h-66l-83 108l-83 -108h-66l109 144h80zM372 233h-34q-218 0 -218 -99q0 -42 32 -64t78 -22q70 0 106 42t36 109v34zM339 287h33v12q0 121 -120 121q-82 0 -143 -55l-40 47q66 68 198 68q75 0 123 -42t48 -124v-209q0 -55 8 -105h-64q-6 34 -6 76h-2 q-54 -88 -165 -88q-67 0 -114 36t-47 101q0 37 13 65t38 45t52 28t63 16t64 7q27 2 61 1z"/>
<glyph glyph-name="atilde" horiz-adv-x="519" unicode="ã" d="M141 576h-43q18 104 92 104q27 0 73 -23q50 -23 67 -23q37 0 49 50h43q-18 -104 -92 -104q-23 0 -73 23q-44 23 -67 23q-37 0 -49 -50zM372 233h-34q-218 0 -218 -99q0 -42 32 -64t78 -22q70 0 106 42t36 109v34zM339 287h33v12q0 121 -120 121q-82 0 -143 -55l-40 47 q66 68 198 68q75 0 123 -42t48 -124v-209q0 -55 8 -105h-64q-6 34 -6 76h-2q-54 -88 -165 -88q-67 0 -114 36t-47 101q0 37 13 65t38 45t52 28t63 16t64 7q27 2 61 1z"/>
<glyph glyph-name="adieresis" horiz-adv-x="519" unicode="ä" d="M305 647q1 19 15 35t36 16t36 -16t15 -35q-1 -19 -15 -35t-36 -16t-36 16t-15 35zM113 647q1 19 15 35t36 16t36 -16t15 -35q-1 -19 -15 -35t-36 -16t-36 16t-15 35zM372 233h-34q-218 0 -218 -99q0 -42 32 -64t78 -22q70 0 106 42t36 109v34zM339 287h33v12 q0 121 -120 121q-82 0 -143 -55l-40 47q66 68 198 68q75 0 123 -42t48 -124v-209q0 -55 8 -105h-64q-6 34 -6 76h-2q-54 -88 -165 -88q-67 0 -114 36t-47 101q0 37 13 65t38 45t52 28t63 16t64 7q27 2 61 1z"/>
<glyph glyph-name="aring" horiz-adv-x="519" unicode="å" d="M320 650q0 25 -18 42t-42 17t-42 -17t-18 -42t18 -42t42 -17t42 17t18 42zM356 650q0 -40 -28 -68t-68 -27q-40 -1 -68 27t-28 68t28 68t68 27q40 1 68 -27t28 -68zM372 233h-34q-218 0 -218 -99q0 -42 32 -64t78 -22q70 0 106 42t36 109v34zM339 287h33v12 q0 121 -120 121q-82 0 -143 -55l-40 47q66 68 198 68q75 0 123 -42t48 -124v-209q0 -55 8 -105h-64q-6 34 -6 76h-2q-54 -88 -165 -88q-67 0 -114 36t-47 101q0 37 13 65t38 45t52 28t63 16t64 7q27 2 61 1z"/>
<glyph glyph-name="ae" horiz-adv-x="852" unicode="æ" d="M453 270h285q0 66 -40 108t-104 42q-60 0 -100 -43t-41 -107zM387 216h-137q-50 0 -90 -20t-40 -62t32 -64t78 -22q71 0 114 44t43 115v9zM804 216h-351v-9q-1 -67 37 -113t100 -46q56 0 88 20t58 56l52 -41q-75 -95 -196 -95q-56 0 -104 28t-71 81q-35 -57 -84 -83 t-124 -26q-67 0 -114 36t-47 101q0 145 228 145h111v29q-1 35 -15 61t-33 37q-20 11 -38 17t-34 6q-83 0 -142 -56l-41 48q73 68 186 68q54 0 96 -26t59 -64q22 42 69 66t98 24q100 -1 156 -66t56 -168v-30z"/>
<glyph glyph-name="ccedilla" horiz-adv-x="482" unicode="ç" d="M467 399l-54 -41q-17 26 -49 44t-68 18h-3q-78 0 -125 -52q-48 -52 -48 -134t48 -134q47 -52 125 -52h3q36 0 68 18t49 44l54 -41q-68 -79 -171 -81q-6 0 -7 1l-37 -49l2 -1q19 7 36 7q32 0 54 -20t23 -55q-1 -43 -35 -65t-80 -23q-52 0 -97 24l16 36q35 -18 74 -18 q25 0 43 11t19 34q0 14 -11 27t-38 13q-22 0 -46 -11l-18 17l56 76q-94 14 -148 80t-54 162q0 108 68 178q67 69 177 68h3q103 -2 171 -81z"/>
<glyph glyph-name="egrave" d="M280 564l-132 144h91l100 -144h-59zM120 270h316q0 68 -41 109t-111 41q-64 0 -114 -46t-50 -104zM508 216h-390q6 -72 54 -120t118 -48q49 0 89 24t61 57l51 -42q-78 -99 -201 -99q-104 0 -173 70t-69 176t68 176t168 70q104 -2 164 -68t60 -166v-30z" unicode="è"/>
<glyph glyph-name="eacute" d="M408 708l-132 -144h-59l100 144h91zM120 270h316q0 68 -41 109t-111 41q-64 0 -114 -46t-50 -104zM508 216h-390q6 -72 54 -120t118 -48q49 0 89 24t61 57l51 -42q-78 -99 -201 -99q-104 0 -173 70t-69 176t68 176t168 70q104 -2 164 -68t60 -166v-30z" unicode="é"/>
<glyph glyph-name="ecircumflex" d="M318 708l109 -144h-66l-83 108l-83 -108h-66l109 144h80zM120 270h316q0 68 -41 109t-111 41q-64 0 -114 -46t-50 -104zM508 216h-390q6 -72 54 -120t118 -48q49 0 89 24t61 57l51 -42q-78 -99 -201 -99q-104 0 -173 70t-69 176t68 176t168 70q104 -2 164 -68t60 -166 v-30z" unicode="ê"/>
<glyph glyph-name="edieresis" d="M323 647q1 19 15 35t36 16t36 -16t15 -35q-1 -19 -15 -35t-36 -16t-36 16t-15 35zM131 647q1 19 15 35t36 16t36 -16t15 -35q-1 -19 -15 -35t-36 -16t-36 16t-15 35zM120 270h316q0 68 -41 109t-111 41q-64 0 -114 -46t-50 -104zM508 216h-390q6 -72 54 -120t118 -48 q49 0 89 24t61 57l51 -42q-78 -99 -201 -99q-104 0 -173 70t-69 176t68 176t168 70q104 -2 164 -68t60 -166v-30z" unicode="ë"/>
<glyph glyph-name="igrave" horiz-adv-x="240" unicode="ì" d="M122 564l-132 144h91l100 -144h-59zM153 468v-468h-66v468h66z"/>
<glyph glyph-name="iacute" horiz-adv-x="240" unicode="í" d="M250 708l-132 -144h-59l100 144h91zM153 468v-468h-66v468h66z"/>
<glyph glyph-name="icircumflex" horiz-adv-x="240" unicode="î" d="M160 708l109 -144h-66l-83 108l-83 -108h-66l109 144h80zM153 468v-468h-66v468h66z"/>
<glyph glyph-name="idieresis" horiz-adv-x="240" unicode="ï" d="M165 647q1 19 15 35t36 16t36 -16t15 -35q-1 -19 -15 -35t-36 -16t-36 16t-15 35zM-27 647q1 19 15 35t36 16t36 -16t15 -35q-1 -19 -15 -35t-36 -16t-36 16t-15 35zM153 468v-468h-66v468h66z"/>
<glyph glyph-name="eth" horiz-adv-x="593" unicode="ð" d="M455 714l-103 -54q96 -96 145 -194q48 -96 48 -207q-1 -53 -13 -98t-39 -85t-77 -64t-120 -24q-108 0 -178 70t-70 176t70 176t178 70q80 0 150 -58l2 2q-63 119 -159 204l-110 -57l-36 36l108 56q-54 50 -95 79l60 37q69 -57 97 -83l102 53zM120 234q0 -80 48 -133 t128 -53t128 53t49 133q-1 80 -49 133t-128 53t-128 -53t-48 -133z"/>
<glyph glyph-name="ntilde" d="M159 576h-43q18 104 92 104q27 0 73 -23q50 -23 67 -23q37 0 49 50h43q-18 -104 -92 -104q-23 0 -73 23q-44 23 -67 23q-37 0 -49 -50zM67 468h68q3 -25 3 -75h2q22 39 66 63t91 24q88 0 132 -48t44 -135v-297h-66v259q0 81 -28 121t-99 40q-8 0 -20 -2t-36 -12 q-22 -10 -40 -28t-32 -54t-14 -84v-240h-66v365q0 18 -5 103z" unicode="ñ"/>
<glyph glyph-name="ograve" horiz-adv-x="593" unicode="ò" d="M299 564l-132 144h91l100 -144h-59zM473 234q-1 80 -49 133t-128 53t-128 -53t-48 -133t48 -133t128 -53t128 53t49 133zM545 234q0 -106 -70 -176t-179 -70q-108 0 -178 70t-70 176t70 176t178 70q109 0 179 -70t70 -176z"/>
<glyph glyph-name="oacute" horiz-adv-x="593" unicode="ó" d="M427 708l-132 -144h-59l100 144h91zM473 234q-1 80 -49 133t-128 53t-128 -53t-48 -133t48 -133t128 -53t128 53t49 133zM545 234q0 -106 -70 -176t-179 -70q-108 0 -178 70t-70 176t70 176t178 70q109 0 179 -70t70 -176z"/>
<glyph glyph-name="ocircumflex" horiz-adv-x="593" unicode="ô" d="M337 708l109 -144h-66l-83 108l-83 -108h-66l109 144h80zM473 234q-1 80 -49 133t-128 53t-128 -53t-48 -133t48 -133t128 -53t128 53t49 133zM545 234q0 -106 -70 -176t-179 -70q-108 0 -178 70t-70 176t70 176t178 70q109 0 179 -70t70 -176z"/>
<glyph glyph-name="otilde" horiz-adv-x="593" unicode="õ" d="M178 576h-43q18 104 92 104q27 0 73 -23q50 -23 67 -23q37 0 49 50h43q-18 -104 -92 -104q-23 0 -73 23q-44 23 -67 23q-37 0 -49 -50zM473 234q-1 80 -49 133t-128 53t-128 -53t-48 -133t48 -133t128 -53t128 53t49 133zM545 234q0 -106 -70 -176t-179 -70 q-108 0 -178 70t-70 176t70 176t178 70q109 0 179 -70t70 -176z"/>
<glyph glyph-name="odieresis" horiz-adv-x="593" unicode="ö" d="M342 647q0 19 14 35t37 16t37 -16t14 -35t-14 -35t-37 -16t-37 16t-14 35zM150 647q0 19 14 35t37 16t37 -16t14 -35t-14 -35t-37 -16t-37 16t-14 35zM473 234q-1 80 -49 133t-128 53t-128 -53t-48 -133t48 -133t128 -53t128 53t49 133zM545 234q0 -106 -70 -176 t-179 -70q-108 0 -178 70t-70 176t70 176t178 70q109 0 179 -70t70 -176z"/>
<glyph glyph-name="divide" horiz-adv-x="666" unicode="÷" d="M387 141q1 -22 -15 -38t-39 -16t-39 16t-15 38q-1 22 15 38t39 16t39 -16t15 -38zM387 465q1 -22 -15 -38t-39 -16t-39 16t-15 38q-1 22 15 38t39 16t39 -16t15 -38zM588 333v-60h-510v60h510z"/>
<glyph glyph-name="oslash" horiz-adv-x="593" unicode="ø" d="M553 465l-66 -68q58 -66 58 -163q0 -106 -70 -176t-179 -70q-92 0 -157 52l-67 -68l-32 31l66 68q-58 67 -58 163q0 106 70 176t178 70q91 0 159 -52l66 68zM154 120l255 261q-45 39 -113 39q-80 0 -128 -53t-48 -133q0 -68 34 -114zM439 348l-255 -262q46 -38 112 -38 q80 0 128 53t49 133q0 65 -34 114z"/>
<glyph glyph-name="ugrave" d="M280 564l-132 144h91l100 -144h-59zM478 0h-68q-3 25 -3 75h-2q-22 -39 -66 -63t-91 -24q-88 0 -132 48t-44 135v297h66v-259q0 -81 28 -121t99 -40q9 0 21 2t35 12t41 28t31 54q14 36 14 84v240h66v-365q0 -18 5 -103z" unicode="ù"/>
<glyph glyph-name="uacute" d="M408 708l-132 -144h-59l100 144h91zM478 0h-68q-3 25 -3 75h-2q-22 -39 -66 -63t-91 -24q-88 0 -132 48t-44 135v297h66v-259q0 -81 28 -121t99 -40q9 0 21 2t35 12t41 28t31 54q14 36 14 84v240h66v-365q0 -18 5 -103z" unicode="ú"/>
<glyph glyph-name="ucircumflex" d="M318 708l109 -144h-66l-83 108l-83 -108h-66l109 144h80zM478 0h-68q-3 25 -3 75h-2q-22 -39 -66 -63t-91 -24q-88 0 -132 48t-44 135v297h66v-259q0 -81 28 -121t99 -40q9 0 21 2t35 12t41 28t31 54q14 36 14 84v240h66v-365q0 -18 5 -103z" unicode="û"/>
<glyph glyph-name="udieresis" d="M323 647q1 19 15 35t36 16t36 -16t15 -35q-1 -19 -15 -35t-36 -16t-36 16t-15 35zM131 647q1 19 15 35t36 16t36 -16t15 -35q-1 -19 -15 -35t-36 -16t-36 16t-15 35zM478 0h-68q-3 25 -3 75h-2q-22 -39 -66 -63t-91 -24q-88 0 -132 48t-44 135v297h66v-259q0 -81 28 -121 t99 -40q9 0 21 2t35 12t41 28t31 54q14 36 14 84v240h66v-365q0 -18 5 -103z" unicode="ü"/>
<glyph glyph-name="yacute" horiz-adv-x="482" unicode="ý" d="M371 708l-132 -144h-59l100 144h91zM99 468l147 -387l143 387h80l-234 -590q-23 -58 -57 -88t-90 -30q-38 0 -61 7l7 64q21 -11 50 -11q34 0 54 21t36 63l34 90l-192 474h83z"/>
<glyph glyph-name="thorn" horiz-adv-x="611" unicode="þ" d="M499 234q-1 80 -49 133t-128 53q-81 0 -134 -54t-53 -132q-1 -80 51 -133t136 -53q80 0 128 53t49 133zM72 -228v984h66v-375h2q72 99 182 99q109 0 179 -70t70 -176t-70 -176t-179 -70q-52 0 -102 23t-80 67h-2v-306h-66z"/>
<glyph glyph-name="OE" horiz-adv-x="944" unicode="Œ" d="M520 66v576h-57q-143 0 -233 -76t-89 -214q1 -29 7 -62q6 -32 27 -74t53 -74t90 -54t131 -22h71zM592 642v-241h282v-66h-282v-269h306v-66h-447q-101 0 -179 34t-122 87t-66 113t-21 121q-1 86 33 155q34 70 89 112t123 64t141 22h437v-66h-294z"/>
<glyph glyph-name="oe" horiz-adv-x="922" unicode="œ" d="M523 270h285q0 66 -40 108t-104 42q-60 0 -100 -43t-41 -107zM451 234q0 78 -44 132t-122 54q-73 0 -119 -53t-46 -133t46 -133t119 -53q78 0 122 54t44 132zM874 216h-351v-9q-1 -67 37 -113t100 -46q56 0 88 20t58 56l52 -41q-75 -95 -196 -95q-59 0 -107 27t-75 79 q-36 -54 -90 -80t-105 -26q-105 0 -171 70t-66 176t68 176t169 70q136 0 198 -105q35 53 77 79t102 26q100 -1 156 -66t56 -168v-30z"/>
<glyph glyph-name="Scaron" d="M427 883l-109 -144h-80l-109 144h66l83 -108l83 108h66zM494 640l-63 -49q-47 69 -137 69q-61 0 -106 -33t-45 -95q-1 -52 37 -84t91 -48t107 -36t90 -63q38 -44 38 -114q0 -93 -72 -149t-161 -56q-146 0 -223 105l65 47q50 -86 161 -86q58 0 105 35t47 94q0 47 -27 77 t-67 44t-88 31t-87 35q-40 18 -67 59t-27 102q-1 97 67 149t162 52q125 0 200 -86z" unicode="Š"/>
<glyph glyph-name="scaron" horiz-adv-x="426" unicode="š" d="M362 708l-109 -144h-80l-109 144h66l83 -108l83 108h66zM379 396l-59 -39q-33 63 -101 63q-39 0 -68 -18t-29 -52q0 -31 22 -47t70 -27l67 -16q50 -12 82 -46t32 -82q0 -72 -53 -108t-129 -36q-119 0 -180 91l57 39q45 -70 123 -70q45 0 77 20t33 58q0 32 -23 48t-66 27 l-64 15q-120 30 -120 123q0 69 50 105t123 36q115 0 156 -84z"/>
<glyph glyph-name="Ydieresis" horiz-adv-x="574" unicode="Ÿ" d="M332 822q0 20 14 36t37 15q23 1 37 -15t14 -36t-14 -36t-37 -15q-23 -1 -37 15t-14 36zM140 822q0 20 14 36t37 15q23 1 37 -15t14 -36t-14 -36t-37 -15q-23 -1 -37 15t-14 36zM323 305v-305h-72v305l-265 403h90l211 -334l211 334h90z"/>
<glyph glyph-name="circumflex" horiz-adv-x="240" unicode="ˆ" d="M160 708l109 -144h-66l-83 108l-83 -108h-66l109 144h80z"/>
<glyph glyph-name="tilde" horiz-adv-x="240" unicode="˜" d="M1 576h-43q18 104 92 104q27 0 73 -23q50 -23 67 -23q37 0 49 50h43q-18 -104 -92 -104q-23 0 -73 23q-44 23 -67 23q-37 0 -49 -50z"/>
<glyph glyph-name="endash" horiz-adv-x="500" unicode="–" d="M500 273v-66h-500v66h500z"/>
<glyph glyph-name="emdash" horiz-adv-x="1000" unicode="—" d="M1000 273v-66h-1000v66h1000z"/>
<glyph glyph-name="quoteleft" horiz-adv-x="260" unicode="‘" d="M56 473l81 235h67l-67 -235h-81z"/>
<glyph glyph-name="quotesinglbase" horiz-adv-x="260" unicode="‚" d="M204 95l-81 -235h-67l67 235h81z"/>
<glyph glyph-name="quotedblleft" horiz-adv-x="519" unicode="“" d="M276 473l81 235h67l-67 -235h-81zM95 473l81 235h67l-67 -235h-81z"/>
<glyph glyph-name="quotedblright" horiz-adv-x="519" unicode="”" d="M243 708l-81 -235h-67l67 235h81zM424 708l-81 -235h-67l67 235h81z"/>
<glyph glyph-name="dagger" d="M311 708v-204h204v-60h-204v-570h-66v570h-204v60h204v204h66z" unicode="†"/>
<glyph glyph-name="daggerdbl" d="M311 708v-192h195v-60h-195v-330h195v-60h-195v-192h-66v192h-195v60h195v330h-195v60h195v192h66z" unicode="‡"/>
<glyph glyph-name="ellipsis" horiz-adv-x="1000" unicode="…" d="M887 48q1 -22 -15 -38t-39 -16t-39 16t-15 38q-1 22 15 38t39 16t39 -16t15 -38zM554 48q0 -22 -16 -38t-38 -16t-38 16t-16 38t16 38t38 16t38 -16t16 -38zM221 48q1 -22 -15 -38t-39 -16t-39 16t-15 38q-1 22 15 38t39 16t39 -16t15 -38z"/>
<glyph glyph-name="perthousand" horiz-adv-x="1000" unicode="‰" d="M575 712l-450 -743l-52 27l451 743zM921 142q0 40 -29 70t-70 30t-70 -30t-29 -70t29 -70t70 -30t70 30t29 70zM975 142q0 -62 -45 -108t-108 -46t-108 46t-45 108t45 108t108 46t108 -46t45 -108zM571 142q0 40 -29 70t-70 30t-70 -30t-29 -70t29 -70t70 -30t70 30 t29 70zM625 142q0 -62 -45 -108t-108 -46t-108 46t-45 108t45 108t108 46t108 -46t45 -108zM277 566q0 40 -29 70t-70 30t-70 -30t-29 -70t29 -70t70 -30t70 30t29 70zM331 566q0 -62 -45 -108t-108 -46t-108 46t-45 108t45 108t108 46t108 -46t45 -108z"/>
<glyph glyph-name="guilsinglleft" horiz-adv-x="315" unicode="‹" d="M131 240l115 -176l-47 -33l-140 209l140 209l47 -33z"/>
<glyph glyph-name="guilsinglright" horiz-adv-x="315" unicode="›" d="M184 240l-115 176l47 33l140 -209l-140 -209l-47 33z"/>
<glyph glyph-name="fraction" horiz-adv-x="168" unicode="⁄" d="M-115 -32l-52 32l451 740l51 -31z"/>
<glyph glyph-name="trademark" horiz-adv-x="1000" unicode="™" d="M928 708v-412h-60v346h-2l-139 -346h-39l-139 346h-2v-346h-60v412h93l129 -316l129 316h90zM401 708v-54h-133v-358h-60v358h-136v54h329z"/>
<glyph glyph-name="minus" horiz-adv-x="666" unicode="−" d="M588 333v-60h-510v60h510z"/>
</font>
</defs>
</svg>
